<?xml version="1.0" encoding="utf-8"?>

<!DOCTYPE svg PUBLIC "-//W3C//DTD SVG 1.1//EN" "http://www.w3.org/Graphics/SVG/1.1/DTD/svg11.dtd">
<!-- Uploaded to: SVG Repo, www.svgrepo.com, Generator: SVG Repo Mixer Tools -->
<svg height="800px" width="800px" version="1.1" id="_x32_" xmlns="http://www.w3.org/2000/svg" xmlns:xlink="http://www.w3.org/1999/xlink" 
	 viewBox="0 0 512 512"  xml:space="preserve">
<style type="text/css">
	.st0{fill:#000000;}
</style>
<g>
	<path class="st0" d="M256,0C114.619,0,0,114.612,0,256c0,141.389,114.619,256,256,256s256-114.611,256-256
		C512,114.612,397.381,0,256,0z M126.27,168.048h7.19c18.032-0.024,34,3.174,47.936,8.849c13.937,5.659,25.73,13.722,35.762,22.889
		c6.428,5.865,12.143,12.199,17.413,18.691c-5.842,7.682-11.111,15.5-16.032,22.96c-1.301,1.993-2.682,4.048-4.095,6.16
		c-2.572-3.484-5.174-6.866-7.857-10.064c-7-8.365-14.46-15.611-22.857-21.318c-5.587-3.786-11.586-6.944-18.349-9.341
		c-9.016-3.191-19.365-5.095-31.92-5.111h-7.19V168.048z M383.873,331.818l-45.301,33.658c-1.429,1.064-3.366,1.199-4.921,0.326
		c-1.572-0.881-2.476-2.588-2.318-4.365l1.572-18.27c-12-1.254-23-4.008-32.936-8.064c-13.952-5.658-25.746-13.73-35.762-22.889
		c-6.413-5.881-12.144-12.198-17.413-18.698c5.825-7.675,11.111-15.492,16.047-22.96c1.286-1.985,2.667-4.056,4.064-6.167
		c2.588,3.499,5.191,6.873,7.889,10.079c6.984,8.374,14.445,15.603,22.81,21.302c5.603,3.802,11.618,6.96,18.365,9.357
		c5.064,1.769,10.555,3.143,16.603,4.016l-1.238-14.246c-0.158-1.802,0.746-3.5,2.318-4.373c1.556-0.873,3.492-0.754,4.921,0.325
		l45.301,33.659c1.159,0.858,1.842,2.215,1.842,3.651C385.715,329.596,385.032,330.961,383.873,331.818z M383.873,187.493
		l-45.301,33.659c-1.429,1.063-3.366,1.206-4.921,0.325c-1.572-0.873-2.476-2.579-2.318-4.365l1.238-14.286
		c-7.397,1.079-13.952,2.896-19.921,5.309c-9.746,3.968-18.031,9.564-25.698,16.548c-5.095,4.659-9.889,9.937-14.492,15.667
		c-6.143,7.658-11.936,16.134-17.698,24.904c-6.714,10.222-13.905,20.786-22.302,30.841c-8.412,10.056-18.063,19.628-29.762,27.572
		c-7.762,5.286-16.444,9.826-26.016,13.23c-12.794,4.564-27.206,7.08-43.222,7.064h-7.19v-33.722h7.19
		c14.143-0.016,25.477-2.421,35.238-6.382c9.762-3.968,18.064-9.556,25.714-16.547c5.111-4.659,9.889-9.929,14.492-15.674
		c6.127-7.635,11.905-16.112,17.683-24.905c6.714-10.214,13.904-20.769,22.318-30.826c8.397-10.048,18.079-19.627,29.746-27.571
		c7.778-5.278,16.429-9.818,26.048-13.246c8.651-3.079,18.08-5.19,28.206-6.262l-1.572-18.262c-0.158-1.777,0.746-3.492,2.318-4.365
		c1.556-0.873,3.492-0.754,4.921,0.325l45.301,33.658c1.159,0.866,1.842,2.223,1.842,3.659
		C385.715,185.278,385.032,186.635,383.873,187.493z"/>
</g>
</svg>